<?xml version="1.0" encoding="utf-8"?>
<!-- Generator: Adobe Illustrator 23.0.3, SVG Export Plug-In . SVG Version: 6.00 Build 0)  -->
<svg version="1.1" id="Layer_1" xmlns="http://www.w3.org/2000/svg" xmlns:xlink="http://www.w3.org/1999/xlink" x="0px" y="0px"
	 viewBox="0 0 512 512" style="enable-background:new 0 0 512 512;" xml:space="preserve">
<style type="text/css">
	.st0{fill:#33AE77;}
	.st1{fill:#1E1E1E;}
	.st2{fill:#E4F9D2;}
	.st3{fill:#FFFFFF;}
	.st4{fill:url(#SVGID_1_);}
	.st5{fill:url(#SVGID_2_);}
	.st6{fill:url(#SVGID_3_);}
	.st7{fill:url(#SVGID_4_);}
	.st8{fill:url(#SVGID_5_);}
	.st9{fill:url(#SVGID_6_);}
	.st10{fill:url(#SVGID_7_);}
	.st11{fill:url(#SVGID_8_);}
	.st12{fill:url(#SVGID_9_);}
	.st13{fill:url(#SVGID_10_);}
	.st14{fill:url(#SVGID_11_);}
	.st15{fill:url(#SVGID_12_);}
	.st16{fill:url(#SVGID_13_);}
	.st17{fill:url(#SVGID_14_);}
	.st18{fill:url(#SVGID_15_);}
	.st19{fill:url(#SVGID_16_);}
	.st20{fill:url(#SVGID_17_);}
	.st21{fill:url(#SVGID_18_);}
	.st22{fill:url(#SVGID_19_);}
	.st23{fill:url(#SVGID_20_);}
	.st24{fill:#FEFEFE;}
	.st25{fill:#494949;}
	.st26{fill:#FF6780;}
	.st27{fill:#FFC663;}
	.st28{fill:#565656;}
	.st29{fill:#4F4F4F;}
	.st30{fill:#4D4D4D;}
	.st31{fill:#4C4C4C;}
	.st32{fill:#FFC358;}
	.st33{fill:#4A4A4A;}
	.st34{fill:#4B4B4B;}
	.st35{fill:#FBCF64;}
	.st36{fill:#E86471;}
	.st37{fill:#FFC459;}
	.st38{fill:#505050;}
	.st39{fill:#FE6770;}
	.st40{fill:#FFC55B;}
	.st41{fill:#FFC360;}
	.st42{fill:#FD818B;}
	.st43{fill:#FEC254;}
	.st44{fill:#FF6B6F;}
	.st45{fill:#FFCE69;}
	.st46{fill:#484848;}
	.st47{fill:#4E4E4E;}
	.st48{fill:#515151;}
	.st49{fill:#525252;}
	.st50{fill:#FFC34F;}
	.st51{fill:#555555;}
	.st52{fill:#545454;}
	.st53{fill:url(#SVGID_21_);}
	.st54{fill:url(#SVGID_22_);}
	.st55{fill:url(#SVGID_23_);}
	.st56{fill:url(#SVGID_24_);}
	.st57{fill:url(#SVGID_25_);}
	.st58{fill:url(#SVGID_26_);}
	.st59{fill:url(#SVGID_27_);}
	.st60{fill:url(#SVGID_28_);}
	.st61{fill:url(#SVGID_29_);}
	.st62{fill:url(#SVGID_30_);}
	.st63{fill:url(#SVGID_31_);}
	.st64{fill:url(#SVGID_32_);}
	.st65{fill:url(#SVGID_33_);}
	.st66{fill:url(#SVGID_34_);}
	.st67{fill:url(#SVGID_35_);}
	.st68{fill:url(#SVGID_36_);}
	.st69{fill:url(#SVGID_37_);}
	.st70{fill:url(#SVGID_38_);}
	.st71{fill:url(#SVGID_39_);}
	.st72{fill:url(#SVGID_40_);}
	.st73{fill:url(#SVGID_41_);}
	.st74{fill:url(#SVGID_42_);}
	.st75{fill:url(#SVGID_43_);}
	.st76{fill:url(#SVGID_44_);}
	.st77{fill:url(#SVGID_45_);}
	.st78{fill:url(#SVGID_46_);}
	.st79{fill:url(#SVGID_47_);}
	.st80{fill:url(#SVGID_48_);}
	.st81{fill:url(#SVGID_49_);}
	.st82{fill:url(#SVGID_50_);}
	.st83{fill:url(#SVGID_51_);}
	.st84{fill:url(#SVGID_52_);}
	.st85{fill:url(#SVGID_53_);}
	.st86{fill:url(#SVGID_54_);}
	.st87{fill:url(#SVGID_55_);}
	.st88{fill:url(#SVGID_56_);}
	.st89{fill:url(#SVGID_57_);}
	.st90{fill:url(#SVGID_58_);}
	.st91{fill:url(#SVGID_59_);}
	.st92{fill:url(#SVGID_60_);}
	.st93{fill:url(#SVGID_61_);}
	.st94{fill:url(#SVGID_62_);}
	.st95{fill:url(#SVGID_63_);}
	.st96{fill:url(#SVGID_64_);}
	.st97{fill:url(#SVGID_65_);}
	.st98{fill:url(#SVGID_66_);}
	.st99{fill:url(#SVGID_67_);}
	.st100{fill:url(#SVGID_68_);}
	.st101{fill:url(#SVGID_69_);}
	.st102{fill:url(#SVGID_70_);}
	.st103{fill:url(#SVGID_71_);}
	.st104{fill:url(#SVGID_72_);}
	.st105{fill:url(#SVGID_73_);}
	.st106{fill:url(#SVGID_74_);}
	.st107{fill:url(#SVGID_75_);}
	.st108{fill:url(#SVGID_76_);}
	.st109{fill:url(#SVGID_77_);}
	.st110{fill:url(#SVGID_78_);}
	.st111{fill:url(#SVGID_79_);}
	.st112{fill:url(#SVGID_80_);}
	.st113{fill:url(#SVGID_81_);}
	.st114{fill:url(#SVGID_82_);}
	.st115{fill:url(#SVGID_83_);}
	.st116{fill:url(#SVGID_84_);}
	.st117{fill:url(#SVGID_85_);}
	.st118{fill:url(#SVGID_86_);}
	.st119{fill:url(#SVGID_87_);}
	.st120{fill:url(#SVGID_88_);}
	.st121{fill:url(#SVGID_89_);}
	.st122{fill:url(#SVGID_90_);}
	.st123{fill:url(#SVGID_91_);}
	.st124{fill:url(#SVGID_92_);}
	.st125{fill:url(#SVGID_93_);}
	.st126{fill:url(#SVGID_94_);}
	.st127{fill:url(#SVGID_95_);}
	.st128{fill:url(#SVGID_96_);}
	.st129{fill:url(#SVGID_97_);}
	.st130{fill:url(#SVGID_98_);}
	.st131{fill:url(#SVGID_99_);}
	.st132{fill:url(#SVGID_100_);}
	.st133{fill:url(#SVGID_101_);}
	.st134{fill:url(#SVGID_102_);}
	.st135{fill:url(#SVGID_103_);}
	.st136{fill:url(#SVGID_104_);}
	.st137{fill:url(#SVGID_105_);}
	.st138{fill:url(#SVGID_106_);}
	.st139{fill:url(#SVGID_107_);}
	.st140{fill:url(#SVGID_108_);}
	.st141{fill:url(#SVGID_109_);}
	.st142{fill:url(#SVGID_110_);}
	.st143{fill:url(#SVGID_111_);}
	.st144{fill:url(#SVGID_112_);}
	.st145{fill:url(#SVGID_113_);}
	.st146{fill:url(#SVGID_114_);}
	.st147{fill:url(#SVGID_115_);}
	.st148{fill:url(#SVGID_116_);}
	.st149{fill:url(#SVGID_117_);}
	.st150{fill:url(#SVGID_118_);}
	.st151{fill:url(#SVGID_119_);}
	.st152{fill:url(#SVGID_120_);}
	.st153{fill:url(#SVGID_121_);}
	.st154{fill:url(#SVGID_122_);}
	.st155{fill:url(#SVGID_123_);}
	.st156{fill:url(#SVGID_124_);}
	.st157{fill:url(#SVGID_125_);}
	.st158{fill:url(#SVGID_126_);}
	.st159{fill:url(#SVGID_127_);}
	.st160{fill:url(#SVGID_128_);}
	.st161{fill:url(#SVGID_129_);}
	.st162{fill:url(#SVGID_130_);}
	.st163{fill:url(#SVGID_131_);}
	.st164{fill:url(#SVGID_132_);}
	.st165{fill:url(#SVGID_133_);}
	.st166{fill:url(#SVGID_134_);}
	.st167{fill:url(#SVGID_135_);}
	.st168{fill:url(#SVGID_136_);}
	.st169{fill:url(#SVGID_137_);}
	.st170{fill:url(#SVGID_138_);}
	.st171{fill:url(#SVGID_139_);}
	.st172{fill:url(#SVGID_140_);}
	.st173{fill:url(#SVGID_141_);}
	.st174{fill:url(#SVGID_142_);}
	.st175{fill:url(#SVGID_143_);}
	.st176{fill:url(#SVGID_144_);}
	.st177{fill:url(#SVGID_145_);}
	.st178{fill:url(#SVGID_146_);}
	.st179{fill:url(#SVGID_147_);}
	.st180{fill:url(#SVGID_148_);}
	.st181{fill:url(#SVGID_149_);}
	.st182{fill:url(#SVGID_150_);}
	.st183{fill:url(#SVGID_151_);}
</style>
<g>
	<g>
		<path class="st0" d="M256.1,93.8C161.2,93.4,84,170.2,83.7,265.2c-0.2,95.3,76.2,173.1,170.6,173.5c95.9,0.4,173.6-76.3,174-171.6
			C428.7,171.3,352,94.2,256.1,93.8z M255.3,420.7c-86.7-0.6-155-70.3-154.2-157.3c0.7-83.7,71.1-152.6,155.4-152.1
			c85.7,0.5,155.3,70.8,154.4,156.1C409.9,352.6,340.2,421.3,255.3,420.7z"/>
		<path class="st0" d="M159.7,192.7c3.1-0.2,5.5,1.4,7,3.7c3.5,5.1,0.8,9.6-1.9,14.1c-14.2,23.5-19,48.8-13.9,75.9
			c2.2,11.9,6.5,23.1,12.6,33.6c3,5.2,4.8,10.7-1.5,14.5c-7.2,4.3-11.1-0.6-14.2-6.3c-23-43.1-22.3-85.8,2.6-127.9
			C153.7,194.4,156.4,192.8,159.7,192.7z"/>
		<path class="st0" d="M380.7,266.9c-0.7,21.2-5.6,41.7-16.4,60.6c-3,5.3-6.5,11.2-14,7.1c-7.3-4-4.9-9.8-1.8-15.5
			c18.5-33.7,19-67.8,2.1-102.2c-3.1-6.2-3.9-11.9,3.4-15c6.8-2.9,10.1,2.2,12.7,7.4C375.9,227.2,380.3,246.4,380.7,266.9z"/>
		<path class="st0" d="M234,229.9c7.8-4.9,13.8-11.5,15.7-20.3c3.2-15,1.5-30.4,1.1-45.6c-0.1-4.8-3.9-7.5-8.5-7.3
			c-5.4,0.2-8.3,3.7-8.4,9.1c-0.1,10.2-0.1,20.3-0.1,30.5c0,7.1-1.2,13.3-9.9,17.4c0-15.5,0-29.6,0-43.8c0-6.2,0-13.1-8.4-13.1
			c-8-0.1-9.1,6.2-9.1,12.8c0.1,14.3,0,28.5,0,44.2c-8.4-4.8-9.2-10.6-9.2-16.8c0-9.2,0-18.5,0-27.7c0-6.6-1.5-12.7-9.4-12.5
			c-7.1,0.2-8.6,6-8.6,12c-0.1,10.6-0.4,21.3,0.2,31.9c0.8,12.8,6.9,22.8,17.9,29.6c12.1,7.5,13.2,21.3,2.1,30.4
			c-7.4,6.1-10.6,13.6-10.5,23c0.1,21.3-0.2,42.5,0.1,63.8c0.3,17.9,10.7,28.8,26.8,28.5c15.6-0.3,25.9-10.9,26.2-28
			c0.3-21.7,0.1-43.4,0.1-65.2c0-8.8-3.3-16-10.1-21.8C219.7,250.5,220.5,238.3,234,229.9z M224.5,284.7c0.1,20.8,0.2,41.5,0.1,62.3
			c0,6.1-2.1,11.5-9.2,11.4c-6.9-0.2-9-5.4-9-11.6c0-10.6,0-21.2,0-31.8c0-10.1,0-20.3,0-30.4c0-6.2,2.4-11.5,9.2-11.4
			C222.6,273,224.4,278.7,224.5,284.7z"/>
		<path class="st0" d="M312.3,259.5c-9.6-7.4-8.5-22.4,1.8-28.8c13.7-8.7,20.5-21.4,19.3-37.3c-1.3-17.3-8.3-32.2-24.4-41
			c-6.9-3.8-14.6-4-21.4-0.7c-16.1,7.6-23.4,21.9-25.5,38.7c-2,15.8,3.1,29.2,16.5,38.6c13.7,9.6,14.6,21.3,2.1,32.3
			c-6.7,5.9-9.9,13.1-9.9,21.9c0,10.6,0,21.2,0,31.9c0,10.6-0.2,21.2,0,31.9c0.4,17.9,10.7,28.9,26.6,28.9
			c16.2,0.1,26.1-10.6,26.3-28.8c0.2-20.8-0.1-41.6,0.1-62.3C324.1,274.2,320.8,266,312.3,259.5z M279.1,194.9
			c0.2-12.7,10.5-27.9,18.8-27.7c8.4,0.3,18,15.5,17.9,28.3c-0.1,12.4-8.2,21.8-18.5,21.7C287.3,217,278.9,206.8,279.1,194.9z
			 M306.4,348.1c-0.1,5.8-2.6,10.1-8.8,10.1c-6.2,0-8.6-4.4-8.7-10.2c0-21.6,0-43.2,0-64.9c0-5.8,2.4-10.3,8.6-10.1
			c6,0.1,8.8,4.4,8.8,10.2c0.1,11,0,22.1,0,33.1C306.5,327,306.5,337.6,306.4,348.1z"/>
	</g>
</g>
</svg>
